<svg viewBox="0 0 1024 1024" version="1.1" xmlns="http://www.w3.org/2000/svg" p-id="2427" xmlns:xlink="http://www.w3.org/1999/xlink" width="26" height="26"  fill="#6c6c6c" >
<path d="M618.22 155.13c1.05-5.1 8.87-6.14 10.81-1.17 21.47 52.21 19.04 113.29-5.34 164.1 91.14-13.37 176.92-59.43 238.91-127.5 2.12-2.91 6.53-4.28 9.3-1.41 3.15 3.86 1.55 9.29 2.13 13.86 2.85 96.95-28.69 194.24-87.34 271.43 31.31-3.37 62.19-10.45 91.89-20.91 4.25-2.08 9.24 2.36 7.82 6.8-23.83 74.21-83.13 135.93-156.26 162.86-2.38 0.86-5.54 1.55-5.3 4.76-16.79 83.06-72.41 156.97-147.16 196.72-66.09 35.96-146.38 44.21-218.56 23.24-62.14-17.76-117.75-57.12-155.42-109.61-58.81-80.4-72.3-192.58-31.12-283.68 25.05-55.89 71.17-100.42 124.45-129.59 44.24-24.48 93.22-39.6 142.98-47.81 37.75-6.25 75.1-18.06 107.56-38.68 31.37-19.66 57.02-48.83 70.65-83.41m-62.6 400.53c-59.3 28.76-121.06 55.72-187.24 62.84-2.64-0.13-6.4 1.56-4.63 4.7 9.92 14.03 24.77 24.16 40.68 30.28 21.83 8.11 46.15 7.58 68.36 1.3 23.58-7.14 43.13-23.7 58.14-42.8 12.76-16.76 23.61-35.21 30.6-55.13-1.25-2.24-3.86-2.58-5.91-1.19m-373.4 18.62c-2.74 0.55-1.92 3.83-1.28 5.7 5.73 17.89 13.59 35.65 26.43 49.63 9.14 10.21 22.79 16.78 36.64 15.51 13.43-1.25 24.3-12.15 28.57-24.47 0.77-2.81-2.52-3.57-4.58-3.71-30.44-3.39-56.99-20.78-80.11-39.8-1.77-1.09-3.35-3.63-5.67-2.86z" p-id="2428">
</path>
</svg>