<svg width="2010" viewBox="0 0 2010 1247" fill="none" xmlns="http://www.w3.org/2000/svg"><g clip-path="url(#clip0_1018_863)"><g clip-path="url(#clip1_1018_863)"><path d="M1923.5 576C1763 747 1614.4 773.9 1612 775.5" stroke="#7DD3FC" stroke-width="14"/><path d="M4.952 386.516l-.745-12.188c172.791-10.547 330.394-69.13 432.179-116.417 110.307-51.246 180.477-100.534 181.172-101.025l7.05 9.973c-24.381 17.233-94.022 60.756-183.076 102.128-65.354 30.362-131.642 55.423-197.02 74.488-81.79 23.85-162.39 38.332-239.56 43.041z" fill="#7DD3FC"/><path d="M365.988 748.913c-9.925 39.491-9.953 75.441-.08 103.965 11.403 32.942 35.25 55.394 70.878 66.73 19.637 6.25 39.83 7.837 58.392 7.837 5.777 0 11.397-.155 16.79-.369 148.823-5.926 297.01-72.007 406.564-181.299 45.433-45.323 82.638-96.503 110.578-152.117a6.106 6.106 0 00-2.72-8.198 6.113 6.113 0 00-8.2 2.715c-27.346 54.442-63.779 104.558-108.282 148.955-107.41 107.152-252.63 171.936-398.425 177.742-21.673.862-47.049.717-70.995-6.903-31.756-10.106-52.965-29.986-63.039-59.089-15.296-44.188-2.666-104.267 20.552-152.74 30.702-6.187 61.424-15.656 91.465-28.284 59.527-25.023 117.542-62.604 172.435-111.697 7.78-6.96 15.187-13.958 20.297-23.036 6.151-10.933 7.37-23.29 3.259-33.058-5.981-14.205-21.784-20.897-34.792-21.227-13.495-.383-26.312 4.648-37.262 9.357-84.526 36.349-157.537 95.358-205.584 166.157-6.446 9.498-12.517 19.943-18.043 30.95-34.332 6.447-68.557 8.653-101.654 6.442-15.731-1.05-33.546-3.451-46.403-13.298-11.206-8.582-18.716-23.104-20.609-39.844-1.556-13.776.335-28.982 5.951-47.858 12.76-42.895 38.308-86.092 78.1-132.058 18.141-20.957 36.638-41.147 55.434-60.52 74.916-17.012 138.344-50.31 180.149-95.71 4.623-5.021 9.676-11.207 12.083-19.014 2.503-8.119 1.44-16.009-2.993-22.214-4.532-6.345-12.135-10.142-20.863-10.415-16.391-.456-31.405 9.349-45.218 20.08-44.242 34.375-87.554 73.271-129.388 116.163-23.633 5.168-48.442 8.692-74.085 10.432-11.9.807-42.532 1.48-69.825-9.666-24.371-9.954-37.682-26.06-39.563-47.872-1.977-22.932 7.941-45.628 17.903-64.804 33.383-64.262 89.355-118.547 161.866-156.983 24.926-13.212 63.568-31.592 106.1-44.121 44.243-13.034 81.664-16.457 111.228-10.183 20.743 4.406 30.643 16.693 29.425 36.521-2.421 39.409-46.615 89.644-81.531 92.675a6.108 6.108 0 00-5.557 6.613c.293 3.358 3.238 5.832 6.613 5.555 20.06-1.742 42.478-15.336 61.502-37.297 18.236-21.053 29.887-46.024 31.162-66.797 1.599-26.046-12.278-43.525-39.078-49.215-77.945-16.557-183.722 33.27-225.583 55.459-74.711 39.603-132.453 95.671-166.984 162.143-10.771 20.732-21.478 45.437-19.233 71.483 5.207 60.406 79.374 71.59 122.382 68.672 20.024-1.357 39.562-3.783 58.464-7.215a1468.514 1468.514 0 00-43.644 48.237c-40.951 47.304-67.306 91.976-80.572 136.569-6.098 20.5-8.127 37.25-6.381 52.712 2.264 20.022 11.492 37.578 25.319 48.166 15.439 11.825 35.464 14.617 53.015 15.79 31.336 2.092 63.628.347 96.071-5.092-7.215 16.251-13.18 33.32-17.391 50.073zm51.937-87.7c46.755-68.896 117.891-126.356 200.302-161.798 9.886-4.249 20.409-8.38 31.084-8.38.347 0 .696.004 1.043.013 9.084.231 19.981 4.575 23.847 13.757 2.657 6.314 1.668 14.663-2.647 22.33-4.193 7.45-10.809 13.676-17.794 19.922-53.881 48.19-110.75 85.045-169.028 109.543-26.164 10.997-52.842 19.537-79.55 25.53 4.042-7.38 8.314-14.392 12.743-20.917zm73.32-380.673c11.745-9.124 24.28-17.531 36.518-17.531.275 0 .551.004.827.014 4.887.152 9.008 2.085 11.307 5.304 2.199 3.078 2.635 7.062 1.26 11.52-1.689 5.478-5.699 10.321-9.398 14.339-36.57 39.715-90.594 69.826-154.709 87.308 37.095-36.952 75.286-70.724 114.195-100.954zM1664.7 670.298c-64 69.5 55.95-35.896-28.2 13.866-68.43 40.462 21.1-15.691-48.38.965a282.596 282.596 0 00-11.13-12.577c-36.57-38.914-137.98-111.344-189.66-135.351-9.21-4.279-18.74-8.702-29.33-10.201-18.88-2.672-20.02-23.052-23.37-1.454-3.52 22.709 13.38 125.996 27.87 140.557 15.45 15.521 77.06 10.466 99.34 18.956 31.25 11.909 65.62-4.147 86.31-6.847 18.36-2.393 16.58 24.8 35.3 20.548 23.24 29.618 66.95 42.822 49.26 85.513-12.12 29.274-41.92 47.482-64.77 57.602a250.188 250.188 0 01-16.62 6.651c-36.27-23.357-71.03-41.409-104.95-54.569-16.57-6.427-36.07-12.416-55.11-8.123-9.83 2.218-19.24 7.948-25.81 15.722-7.3 8.641-10.42 18.866-8.78 28.791 2.93 17.724 19.54 31.143 46.78 37.783 48.21 11.756 99.27 9.511 146.22-6.114 24.43 16.002 49.59 34.46 75.69 55.499 59.12 47.647 114.99 124.955 106.53 190.265-7.82 60.36-68.93 77.46-118.84 73.75-74.28-5.51-162.79-43.24-236.75-100.93-37.55-29.29-69.81-62.87-93.29-97.115-25.65-37.412-41.06-75.301-45.81-112.615l-12.11 1.543c4.99 39.256 21.09 78.95 47.85 117.977 24.18 35.27 57.32 69.79 95.84 99.84 75.8 59.11 166.77 97.8 243.37 103.48 4.72.35 9.41.52 14.04.52 25.94 0 50.24-5.43 69.56-15.68 27.6-14.64 44.28-38.57 48.25-69.2 4.42-34.15-6.62-73.39-31.93-113.468-19.77-31.291-48.57-63.32-79.04-87.877-23.74-19.13-46.72-36.161-69.12-51.193 3.01-1.201 6-2.457 8.97-3.77 36.21-16.033 60.14-37.597 71.12-64.097 19.05-45.988-23.6-61.308-47.54-93.281 68.92-17.155-20.13 40.012 47.54 0 76.87-42.706-34.3 53.134 30-17.452l-9.3-7.914zm-118.13-4.195c-18.35 2.386-51.49 18.553-80.38 7.544-20.68-7.878-80.8-1.857-95.03-16.159-12.79-12.846-27.21-112.38-24.46-130.071 1.95-12.586-6.51 11.373 5.25 11.373 1.45 0 2.91.101 4.34.303 8.8 1.245 17.49 5.281 25.89 9.184 50.29 23.357 150.4 94.849 185.91 132.639 2.12 2.254 4.33 4.685 6.6 7.279-16.29 3.531-12.12-24.18-28.12-22.092zm-140.23 190.162c-12.84-3.132-34.81-10.922-37.62-27.908-2.34-14.158 11.42-27.496 25.23-30.61 3.61-.815 7.27-1.177 10.95-1.177 12.39 0 25.02 4.107 37.05 8.773 30.51 11.838 61.77 27.754 94.27 48.067-42.08 12.163-87.16 13.276-129.88 2.855zm-262.26 160.285c-2.63-2.11-6.47-1.68-8.58.95-76.46 95.58-154.192 95.34-269.26 139.95-119.877 46.47-227.05 69.39-325.329 69.39-24.863 0-49.17-1.47-72.954-4.39-40.768-5.02-109.674-21.06-113.119-72.17-1.128-16.79 7.807-35.05 23.897-48.84 48.009-41.14 120.243-59.51 183.972-75.72 6.241-1.58 12.381-3.14 18.386-4.7a6.103 6.103 0 004.381-7.44c-.845-3.26-4.176-5.23-7.442-4.38-5.988 1.55-12.112 3.11-18.334 4.69-65.028 16.53-138.732 35.27-188.912 78.28-19 16.28-29.518 38.32-28.134 58.93 4.036 59.87 79.305 77.99 123.813 83.47 24.293 2.99 49.082 4.49 74.454 4.49 99.798-.01 208.442-23.21 329.736-70.23 116.66-45.22 196.115-45.87 274.385-143.7 2.1-2.64 1.68-6.48-.96-8.58zm128.69-705.438c2.07-26.993 2.32-52.551.76-76.623 48.01-51.522 107.13-94.372 168.11-121.088 45.21-19.811 102.38-32.32 156.83-34.32 62.28-2.292 117.03 8.756 158.36 31.936 48.41 27.159 76.9 69.812 84.66 126.773 8.73 64.094-12.55 134.099-58.39 192.065-45.33 57.337-108.2 95.287-172.46 104.118a6.106 6.106 0 00-5.22 6.88c.46 3.342 3.56 5.68 6.88 5.218 67.36-9.256 133.11-48.854 180.38-108.64 47.89-60.557 70.09-133.924 60.91-201.289-8.31-60.963-38.85-106.643-90.79-135.775-43.28-24.279-100.25-35.857-164.78-33.49-55.93 2.054-114.71 14.935-161.28 35.337-60.23 26.389-116.98 66.517-164.57 115.794-6.32-61.92-25.27-113.389-56.67-153.674-24.74-31.739-60.11-41.36-105.13-28.598-37.83 10.722-75.84 35.619-101.14 53.413-60.576 42.606-107.084 100.975-134.488 168.796a6.104 6.104 0 003.374 7.948 6.103 6.103 0 007.948-3.374c26.523-65.634 71.543-122.13 130.196-163.38 58.47-41.128 141.74-88.701 189.61-27.296 31.74 40.719 50.17 93.705 55.1 158.11a531.25 531.25 0 00-33.93 41.295c-59.66 80.581-88.85 168.151-84.4 253.243.9 17.219 6.47 27.964 16.56 31.934 2.51.988 5.17 1.483 7.96 1.483 5.61 0 11.77-2.007 18.4-6.006 72.18-43.582 81.45-165.243 86.99-237.934l.22-2.856zm-12.17-.93l-.22 2.858c-5.36 70.344-14.34 188.078-81.13 228.407-4.46 2.691-10.78 5.499-15.58 3.613-5.23-2.059-8.2-9.195-8.83-21.207-4.3-82.226 24.06-167.063 82.02-245.338a499.979 499.979 0 0125.11-31.196c.76 19.941.3 40.897-1.37 62.863z" fill="#7DD3FC"/><path d="M1317.31 216.176c-29.16 0-54.53 16.234-67.56 40.155-13.03-23.921-38.4-40.155-67.56-40.155-29.16 0-54.53 16.234-67.56 40.155-13.04-23.921-38.4-40.155-67.56-40.155-42.47 0-76.894 34.425-76.894 76.891 0 42.466 34.424 76.89 76.894 76.89 29.16 0 54.52-16.233 67.56-40.155 13.03 23.922 38.4 40.155 67.56 40.155 29.16 0 54.53-16.233 67.56-40.155 13.03 23.922 38.4 40.155 67.56 40.155 42.47 0 76.89-34.425 76.89-76.89s-34.42-76.891-76.89-76.891z" fill="#EFEDEA"/><path d="M1317.31 206c-27.24 0-51.58 12.585-67.55 32.234-15.98-19.65-40.33-32.234-67.57-32.234-27.24 0-51.58 12.586-67.55 32.236-15.98-19.651-40.33-32.236-67.57-32.236-48.012 0-87.07 39.058-87.07 87.067 0 48.009 39.058 87.067 87.07 87.067 27.24 0 51.59-12.583 67.56-32.233 15.98 19.65 40.32 32.233 67.56 32.233 27.24 0 51.59-12.584 67.57-32.235 15.97 19.652 40.31 32.235 67.55 32.235 48.01 0 87.07-39.058 87.07-87.067 0-48.009-39.06-87.067-87.07-87.067zm-270.24 153.78c-36.79 0-66.716-29.927-66.716-66.713 0-36.787 29.926-66.713 66.716-66.713 36.78 0 66.71 29.928 66.71 66.713s-29.93 66.713-66.71 66.713zm135.12 0c-23.44 0-44.08-12.163-55.97-30.501a86.658 86.658 0 007.91-36.212 86.527 86.527 0 00-7.92-36.215c11.9-18.336 32.54-30.498 55.98-30.498 36.78 0 66.71 29.928 66.71 66.713s-29.93 66.713-66.71 66.713zm135.12 0c-23.44 0-44.08-12.155-55.98-30.488a86.577 86.577 0 007.93-36.225c0-12.92-2.85-25.18-7.92-36.216 11.89-18.335 32.53-30.497 55.97-30.497 36.79 0 66.72 29.928 66.72 66.713s-29.93 66.713-66.72 66.713z" fill="#292524"/><path d="M1182.19 260.306c-18.07 0-32.76 14.696-32.76 32.761 0 18.064 14.69 32.761 32.76 32.761 18.06 0 32.76-14.697 32.76-32.761 0-18.065-14.7-32.761-32.76-32.761zm0 45.168c-6.84 0-12.41-5.566-12.41-12.407s5.57-12.406 12.41-12.406 12.4 5.565 12.4 12.406-5.56 12.407-12.4 12.407zm-107.16-40.371c-3.98-3.973-10.42-3.973-14.39 0l-13.57 13.57-13.57-13.57a10.189 10.189 0 00-14.4 0c-3.97 3.976-3.97 10.418 0 14.394l13.57 13.57-13.57 13.57c-3.97 3.976-3.97 10.419 0 14.394a10.15 10.15 0 007.2 2.981c2.6 0 5.21-.994 7.2-2.981l13.57-13.57 13.57 13.57a10.127 10.127 0 007.19 2.981c2.61 0 5.21-.994 7.2-2.981 3.97-3.975 3.97-10.418 0-14.394l-13.57-13.57 13.57-13.57c3.97-3.976 3.97-10.418 0-14.394zm250.47-7.586c-3.97-3.975-10.42-3.974-14.39.001-3.97 3.975-3.97 10.419 0 14.393l10.98 10.979h-28.9c-5.62 0-10.18 4.556-10.18 10.177 0 5.621 4.56 10.177 10.18 10.177h28.9l-10.98 10.98c-3.97 3.976-3.97 10.419 0 14.394a10.15 10.15 0 007.2 2.98c2.6 0 5.21-.993 7.19-2.98l28.36-28.354a10.175 10.175 0 002.98-7.197c0-2.699-1.07-5.287-2.98-7.197l-28.36-28.353z" fill="#292524"/><path d="M382.725 628.755l-1.547-134.913c-.037-3.225 3.845-4.884 6.15-2.627l94.755 92.765c2.246 2.2.813 6.02-2.325 6.199l-52.359 2.991a3.617 3.617 0 00-2.384 1.086l-36.081 36.984c-2.252 2.309-6.172.74-6.209-2.485z" fill="#EC4871"/><path d="M386.359 642.517c-1.726 0-3.469-.326-5.141-.995a13.75 13.75 0 01-8.669-12.65l-1.548-134.913a13.759 13.759 0 018.376-12.846 13.767 13.767 0 0115.068 2.828l94.757 92.767a13.808 13.808 0 013.265 14.707 13.805 13.805 0 01-12.13 8.926l-49.817 2.845-34.303 35.162a13.748 13.748 0 01-9.858 4.169zm5.176-132.94l1.184 103.209 25.011-25.637a13.765 13.765 0 019.101-4.139l37.522-2.143-72.818-71.29zm36.459 93.754l-.016.001.016-.001z" fill="#292524"/><path d="M827.656 711.266H624.833a3.859 3.859 0 00-3.859 3.859v33.525h-57.648a3.86 3.86 0 00-3.859 3.859v104.092c0 3.035 3.341 4.882 5.911 3.269l39.225-24.624a3.862 3.862 0 012.051-.59h159.495a3.86 3.86 0 003.859-3.86v-33.524h57.648a3.86 3.86 0 003.86-3.859v-78.289a3.859 3.859 0 00-3.86-3.858z" fill="#EFEDEA"/><path d="M827.656 701.088H624.833c-7.738 0-14.036 6.297-14.036 14.037v23.347h-47.471c-7.74 0-14.037 6.297-14.037 14.037v104.092a14.038 14.038 0 0021.499 11.89l37.685-23.658h157.676c7.739 0 14.036-6.298 14.036-14.036v-23.348h47.471c7.739 0 14.036-6.297 14.036-14.036v-78.288c0-7.74-6.297-14.037-14.036-14.037zm-67.825 123.39H606.655a14.03 14.03 0 00-7.463 2.148l-29.549 18.55v-86.35h190.188v65.652zm61.507-37.384h-41.153v-34.585c0-7.74-6.297-14.037-14.036-14.037H631.152v-17.03h190.186v65.652z" fill="#292524"/><path d="M614.349 804.284c6.974 0 12.628-5.654 12.628-12.628 0-6.975-5.654-12.628-12.628-12.628-6.975 0-12.628 5.653-12.628 12.628 0 6.974 5.653 12.628 12.628 12.628zm50.39 0c6.975 0 12.629-5.654 12.629-12.628 0-6.975-5.654-12.628-12.629-12.628-6.974 0-12.628 5.653-12.628 12.628 0 6.974 5.654 12.628 12.628 12.628zm50.389 0c6.975 0 12.628-5.654 12.628-12.628 0-6.975-5.653-12.628-12.628-12.628-6.974 0-12.628 5.653-12.628 12.628 0 6.974 5.654 12.628 12.628 12.628z" fill="#292524"/><path d="M1646.64 482.908h-79.22c-32.74 0-59.28 26.539-59.28 59.277 0 32.739 26.54 59.278 59.28 59.278h79.22c32.73 0 59.27-26.539 59.27-59.278 0-32.738-26.54-59.277-59.27-59.277z" fill="#EFEDEA"/><path d="M1646.64 472.731h-79.22c-38.3 0-69.46 31.157-69.46 69.454s31.16 69.455 69.46 69.455h79.22c38.29 0 69.45-31.157 69.45-69.455s-31.16-69.454-69.45-69.454zm0 118.555h-79.22c-27.07 0-49.1-22.027-49.1-49.101 0-27.074 22.03-49.1 49.1-49.1h79.22c27.07 0 49.1 22.026 49.1 49.1s-22.03 49.101-49.1 49.101z" fill="#292524"/><path d="M1567.86 503.861c-21.14 0-38.33 17.192-38.33 38.324 0 21.132 17.19 38.325 38.33 38.325 21.13 0 38.32-17.193 38.32-38.325s-17.19-38.324-38.32-38.324zm0 56.294c-9.91 0-17.97-8.061-17.97-17.97 0-9.908 8.06-17.969 17.97-17.969 9.91 0 17.97 8.061 17.97 17.969 0 9.909-8.06 17.97-17.97 17.97z" fill="#292524"/><path fill="#2DD4BF" d="M266 894h904.582v238.18H266z"/><path d="M412.601 1082c35.499 0 56.911-17.28 56.911-44.14 0-26.48-21.976-41.132-52.591-43.762l-8.828-.751c-11.833-.939-15.965-6.574-15.965-13.523 0-7.889 5.823-13.899 17.28-13.899 12.021 0 18.97 7.325 18.97 16.341h33.809c0-27.047-19.159-45.266-52.779-45.266-31.179 0-51.088 15.965-51.088 42.824 0 25.356 18.031 41.326 46.392 43.766l8.828.75c15.965 1.31 22.163 5.63 22.163 13.52 0 9.39-8.64 15.22-23.102 15.22-16.904 0-24.793-7.52-24.793-17.47H354c0 27.04 20.097 46.39 58.601 46.39zm124.185 0c39.443 0 61.043-23.1 61.043-59.92v-80.948h-34.935v81.708c0 16.52-9.391 26.48-26.108 26.48-16.904 0-26.295-10.14-26.295-26.48v-81.708h-34.935v80.948c0 36.82 21.787 59.92 61.23 59.92zm111.846-3.76v-42.07h19.91l27.798 42.07h40.194l-33.62-47.89c16.152-7.14 25.356-20.47 25.356-40.384v-3.005c0-30.803-21.976-46.956-57.662-46.956h-56.911v138.235h34.935zm24.042-108.934c12.208 0 20.285 7.888 20.285 20.097 0 12.207-8.077 19.907-20.285 19.907h-24.042v-40.004h24.042zm153.754 108.934l37.189-137.108h-34.935l-27.046 109.318h-6.386l-28.925-109.318h-36.063l39.819 137.108h56.347zm133.355 0v-28.55H905.69v-26.85h50.149v-28.554H905.69v-24.605h52.966v-28.549h-86.774v137.108h87.901zm80.537 0v-51.46h6.76l35.5-85.648h-33.81l-22.54 59.348h-4.69l-25.357-59.348h-35.687l38.88 85.648h6.764v51.46h34.18z" fill="#292524"/><path fill="#A78BFA" d="M919 656h796.884v238.18H919z"/><path d="M1079.5 840.244V733.56h37.56v-30.428H1007v30.428h37.56v106.684h34.94zM1188.9 844c49.77 0 74-39.443 74-70.622v-4.132c0-34.372-25.92-70.246-74-70.246-48.46 0-74.01 35.874-74.01 70.246v4.132c0 31.179 24.05 70.622 74.01 70.622zm0-32.681c-24.04 0-38.69-17.28-38.69-39.819 0-23.854 14.83-39.819 38.69-39.819 23.66 0 38.69 15.965 38.69 39.819 0 22.539-14.84 39.819-38.69 39.819zM1341.83 844c49.78 0 74.01-39.443 74.01-70.622v-4.132c0-34.372-25.92-70.246-74.01-70.246-48.45 0-74 35.874-74 70.246v4.132c0 31.179 24.04 70.622 74 70.622zm0-32.681c-24.04 0-38.69-17.28-38.69-39.819 0-23.854 14.84-39.819 38.69-39.819 23.67 0 38.7 15.965 38.7 39.819 0 22.539-14.84 39.819-38.7 39.819zm172.47 28.925v-30.428h-51.83V703.132h-34.94v137.112h86.77z" fill="#292524"/><path d="M1570.97 844c35.5 0 56.91-17.28 56.91-44.139 0-26.483-21.97-41.133-52.59-43.763l-8.82-.751c-11.84-.939-15.97-6.574-15.97-13.523 0-7.889 5.82-13.899 17.28-13.899 12.02 0 18.97 7.325 18.97 16.341h33.81c0-27.047-19.16-45.266-52.78-45.266-31.18 0-51.09 15.965-51.09 42.824 0 25.356 18.03 41.321 46.39 43.763l8.83.751c15.97 1.315 22.17 5.635 22.17 13.523 0 9.392-8.64 15.214-23.11 15.214-16.9 0-24.79-7.513-24.79-17.467h-33.81c0 27.046 20.1 46.392 58.6 46.392z" fill="#292524"/><path fill="#ED5077" d="M573 425h867.809v231H573z"/><path d="M713.215 609.995c49.398 0 74.754-33.808 74.754-67.617v-4.132c0-36.626-25.356-67.241-74.754-67.241H661v138.99h52.215zm1.503-106.308c23.665 0 37.94 12.584 37.94 36.625 0 22.915-14.275 37.001-37.94 37.001h-18.783v-73.626h18.783zm170.979 105.557v-28.55h-54.093v-26.859h50.149v-28.549h-50.149v-24.605h52.966v-28.549h-86.774v137.112h87.901zM947.659 613c35.498 0 56.911-17.28 56.911-44.139 0-26.483-21.976-41.133-52.591-43.763l-8.828-.751c-11.833-.939-15.965-6.574-15.965-13.523 0-7.889 5.822-13.899 17.28-13.899 12.02 0 18.97 7.325 18.97 16.341h33.808c0-27.047-19.158-45.266-52.778-45.266-31.179 0-51.088 15.965-51.088 42.824 0 25.356 18.031 41.321 46.392 43.763l8.828.751c15.965 1.315 22.163 5.635 22.163 13.523 0 9.392-8.64 15.214-23.102 15.214-16.904 0-24.793-7.513-24.793-17.467h-33.808c0 27.046 20.097 46.392 58.601 46.392zm100.891-3.756V472.132h-34.93v137.112h34.93zm85.07 3.756c27.8 0 49.77-11.082 61.23-30.803v-21.412h11.27v-24.417h-76.26v24.417h33.06v7.137c-5.64 8.077-16.15 13.148-29.3 13.148-24.8 0-37.76-17.28-37.76-40.57 0-23.102 12.21-39.819 34.75-39.819 17.66 0 30.05 9.579 32.31 21.976h34.93c-3.19-32.118-29.49-54.657-67.24-54.657-46.95 0-70.06 36.062-70.06 70.246v4.132c0 31.742 21.42 70.622 73.07 70.622zm113.07-3.756V499.93h2.82l45.64 109.314h57.66V472.132h-32.68v109.314h-2.82l-45.64-109.314h-57.29v137.112h32.31z" fill="#292524"/><path d="M901.516 161.242H265.502v263.731h636.014V161.242z" fill="#FCD34D"/><path d="M919.421 167.838v-13.192c0-6.236-5.074-11.31-11.31-11.31h-13.192c-4.984 0-9.217 3.245-10.719 7.73H600.824c-1.503-4.485-5.736-7.73-10.72-7.73h-13.192c-4.984 0-9.217 3.245-10.719 7.73H282.818c-1.503-4.485-5.736-7.73-10.72-7.73h-13.192c-6.236 0-11.31 5.074-11.31 11.31v13.192c0 4.983 3.244 9.216 7.728 10.719v229.102c-4.484 1.503-7.728 5.736-7.728 10.719v13.192c0 6.236 5.074 11.309 11.31 11.309h13.192c4.984 0 9.217-3.244 10.719-7.728h283.376c1.502 4.484 5.735 7.728 10.719 7.728h13.192c4.984 0 9.217-3.244 10.72-7.728H884.2c1.502 4.484 5.735 7.728 10.719 7.728h13.192c6.236 0 11.31-5.073 11.31-11.309v-13.192c0-4.983-3.244-9.216-7.728-10.719V178.557c4.484-1.503 7.728-5.736 7.728-10.719zm-35.22 246.958H600.823c-1.502-4.484-5.735-7.728-10.719-7.728h-13.192c-4.983 0-9.216 3.244-10.719 7.728H282.817a11.352 11.352 0 00-7.139-7.138v-229.1a11.352 11.352 0 007.139-7.138h283.376c1.503 4.484 5.736 7.728 10.719 7.728h13.192c4.984 0 9.217-3.244 10.719-7.728h283.378a11.351 11.351 0 007.137 7.138v229.1a11.351 11.351 0 00-7.137 7.138z" fill="#292524"/></g><path d="M1348.33 1010.99l47.67 47.66h250.23c12.64 0 24.77-5.02 33.71-13.96a47.654 47.654 0 0013.96-33.7 47.658 47.658 0 00-13.96-33.706 47.683 47.683 0 00-33.71-13.961H1396l-47.67 47.667z" fill="#EFEDEA" stroke="#292524" stroke-width="19" stroke-linecap="round" stroke-linejoin="round"/><path d="M1622.39 963.32v95.33" stroke="#292524" stroke-width="19" stroke-linecap="round" stroke-linejoin="round"/><path d="M1426 1012h139" stroke="#292524" stroke-width="19" stroke-linecap="round"/><g clip-path="url(#clip2_1018_863)" stroke="#292524" stroke-width="19" stroke-linecap="round" stroke-linejoin="round"><path d="M359.667 776.5h-30.834a7.708 7.708 0 00-7.708 7.708v46.25a7.708 7.708 0 007.708 7.709h30.834a7.708 7.708 0 007.708-7.709v-46.25a7.708 7.708 0 00-7.708-7.708z" fill="#EFEDEA"/><path d="M405.917 745.667h-30.834a7.708 7.708 0 00-7.708 7.708v77.083a7.708 7.708 0 007.708 7.709h30.834a7.708 7.708 0 007.708-7.709v-77.083a7.708 7.708 0 00-7.708-7.708z" fill="#EFEDEA"/><path d="M452.167 714.833h-30.834a7.709 7.709 0 00-7.708 7.709v107.916a7.708 7.708 0 007.708 7.709h30.834a7.708 7.708 0 007.708-7.709V722.542a7.709 7.709 0 00-7.708-7.709z" fill="#EFEDEA"/><path d="M328.834 838.167h107.917"/></g><rect x="1480.5" y="215.5" width="210" height="160.765" rx="14.545" fill="#EFEDEA" stroke="#292524" stroke-width="19" stroke-linejoin="round"/><g clip-path="url(#clip3_1018_863)" stroke="#292524" stroke-width="19" stroke-linecap="round" stroke-linejoin="round"><path d="M1585.56 301.125c14.12 0 25.56-11.445 25.56-25.563 0-14.117-11.44-25.562-25.56-25.562S1560 261.445 1560 275.562c0 14.118 11.44 25.563 25.56 25.563zm-44.31 73.75v-14.75c0-7.824 3.11-15.327 8.64-20.86a29.505 29.505 0 0120.86-8.64h29.5c7.82 0 15.33 3.108 20.86 8.64a29.511 29.511 0 018.64 20.86v14.75"/></g><path d="M450.841 368.238v-31.54h-68.993v-1.577c0-5.126 2.957-8.082 9.265-10.645l21.881-9.265c26.808-11.433 38.242-24.64 38.242-47.113v-2.365c0-25.823-19.121-45.733-53.618-45.733C362.53 220 344 240.698 344 268.887h35.482c0-11.236 6.111-18.53 18.136-18.53 11.827 0 18.135 7.294 18.135 16.559 0 10.053-4.928 16.164-16.164 20.895l-21.881 9.265c-22.472 9.462-31.737 20.698-31.737 39.622v31.54h104.87zm75.843 3.942c46.521 0 65.445-32.723 65.445-70.176v-11.433c0-39.228-20.895-70.571-65.445-70.571-44.748 0-65.643 31.343-65.643 70.571v11.433c0 37.453 18.924 70.176 65.643 70.176zm0-33.905c-19.516 0-28.978-13.405-28.978-42.185 0-29.766 9.856-42.185 28.978-42.185 18.923 0 28.78 12.419 28.78 42.579 0 28.386-9.462 41.791-28.78 41.791zm181.266 29.963v-31.54h-68.993v-1.577c0-5.126 2.957-8.082 9.264-10.645l21.881-9.265c26.809-11.433 38.242-24.64 38.242-47.113v-2.365c0-25.823-19.121-45.733-53.617-45.733-35.089 0-53.618 20.698-53.618 48.887h35.482c0-11.236 6.111-18.53 18.136-18.53 11.827 0 18.135 7.294 18.135 16.559 0 10.053-4.928 16.164-16.164 20.895l-21.881 9.265c-22.472 9.462-31.737 20.698-31.737 39.622v31.54h104.87zm115.464 0v-31.54h-68.993v-1.577c0-5.126 2.957-8.082 9.265-10.645l21.88-9.265c26.809-11.433 38.243-24.64 38.243-47.113v-2.365c0-25.823-19.122-45.733-53.618-45.733-35.088 0-53.618 20.698-53.618 48.887h35.482c0-11.236 6.111-18.53 18.136-18.53 11.827 0 18.135 7.294 18.135 16.559 0 10.053-4.928 16.164-16.164 20.895l-21.881 9.265c-22.472 9.462-31.737 20.698-31.737 39.622v31.54h104.87z" fill="#292524"/></g><defs><clipPath id="clip0_1018_863"><path fill="#fff" d="M0 0h2009.5v1247H0z"/></clipPath><clipPath id="clip1_1018_863"><path fill="#fff" transform="translate(4.215)" d="M0 0h2024.24v1269.09H0z"/></clipPath><clipPath id="clip2_1018_863"><path fill="#fff" transform="translate(298 684)" d="M0 0h185v185H0z"/></clipPath><clipPath id="clip3_1018_863"><path fill="#fff" transform="translate(1497 220)" d="M0 0h177v177H0z"/></clipPath></defs></svg>